<svg width="1016" height="634" viewBox="0 0 1016 634" fill="none" xmlns="http://www.w3.org/2000/svg">
<rect width="1016" height="634" fill="#1E1E1E"/>
<path d="M716.5 436.5C716.5 533.156 638.367 611.5 542 611.5C445.633 611.5 367.5 533.156 367.5 436.5C367.5 339.844 445.633 261.5 542 261.5C638.367 261.5 716.5 339.844 716.5 436.5Z" stroke="#F4B4C6" stroke-width="5"/>
<rect x="339" y="379" width="416" height="134" fill="#0B0B0B"/>
<path d="M231.74 487V485.3L235.65 483.77C237.577 482.977 238.88 481.957 239.56 480.71C240.353 479.35 240.75 477.537 240.75 475.27V386.53C240.75 384.263 240.41 382.507 239.73 381.26C239.163 379.9 237.803 378.823 235.65 378.03L231.74 376.5V374.8H313.17L314.19 400.98H312.49L305.18 385C304.16 382.96 303.083 381.317 301.95 380.07C300.817 378.823 299.117 378.2 296.85 378.2H266.25V427.33H284.44C286.707 427.33 288.407 426.763 289.54 425.63C290.787 424.383 291.863 422.74 292.77 420.7L296.17 413.9H297.87V444.5H296.17L292.77 437.36C291.75 435.32 290.673 433.733 289.54 432.6C288.407 431.353 286.707 430.73 284.44 430.73H266.25V483.6H300.59C302.857 483.6 304.613 483.033 305.86 481.9C307.107 480.653 308.127 478.953 308.92 476.8L315.89 460.82H317.59L316.57 487H231.74ZM324.507 487V485.3L328.927 484.28C331.534 483.713 333.63 482.863 335.217 481.73C336.917 480.483 338.504 478.783 339.977 476.63L358.337 450.28L335.217 413.56C334.084 411.86 333.064 410.557 332.157 409.65C331.25 408.743 329.834 408.063 327.907 407.61L325.527 406.93V405.23H368.707V406.93L365.817 407.61C361.85 408.857 361.057 411.35 363.437 415.09L377.377 436.68L392.507 415.77C393.754 413.843 394.32 412.257 394.207 411.01C394.207 409.65 393.13 408.687 390.977 408.12L386.727 406.93V405.23H411.547V406.93L407.467 407.95C404.974 408.63 403.047 409.537 401.687 410.67C400.327 411.69 398.854 413.333 397.267 415.6L379.417 439.74L402.707 475.95C405.54 480.37 409.337 483.203 414.097 484.45L416.817 485.3V487H369.897V485.3L372.787 484.62C374.714 484.167 375.904 483.26 376.357 481.9C376.924 480.427 376.64 478.783 375.507 476.97L360.547 453.68L344.397 477.14C343.037 478.953 342.584 480.54 343.037 481.9C343.604 483.147 344.794 483.997 346.607 484.45L350.007 485.3V487H324.507ZM418.998 526.1V524.4L421.038 523.72C425.231 522.587 427.328 519.867 427.328 515.56V423.08C427.328 420.587 426.874 418.717 425.968 417.47C425.174 416.223 423.644 415.373 421.378 414.92L418.998 414.41V412.71L447.898 402.85L449.598 404.55L451.128 409.82C454.868 407.553 459.004 405.797 463.538 404.55C468.184 403.303 472.944 402.68 477.818 402.68C487.564 402.68 495.271 406.42 500.938 413.9C506.718 421.267 509.608 431.863 509.608 445.69C509.608 459.29 506.434 470 500.088 477.82C493.854 485.64 485.014 489.55 473.568 489.55C464.614 489.55 457.078 488.247 450.958 485.64V515.05C450.958 519.583 452.998 522.417 457.078 523.55L460.308 524.4V526.1H418.998ZM465.408 484.62C471.074 484.62 475.551 481.673 478.838 475.78C482.238 469.887 483.938 460.083 483.938 446.37C483.938 432.657 482.351 423.08 479.178 417.64C476.004 412.087 471.414 409.31 465.408 409.31C461.214 409.31 456.568 410.67 451.468 413.39V481.9C455.774 483.713 460.421 484.62 465.408 484.62ZM517.125 487V485.3L519.165 484.62C523.245 483.26 525.285 480.427 525.285 476.12V385.17C525.285 382.903 524.832 381.203 523.925 380.07C523.018 378.823 521.432 377.917 519.165 377.35L516.955 376.84V375.14L548.065 367.83L550.105 369.36L549.425 393.16V451.3C549.425 455.493 549.425 459.687 549.425 463.88C549.538 467.96 549.595 472.04 549.595 476.12C549.595 478.387 550.048 480.257 550.955 481.73C551.862 483.09 553.392 484.11 555.545 484.79L557.755 485.3V487H517.125ZM608.267 489.55C599.654 489.55 592.174 487.793 585.827 484.28C579.481 480.653 574.551 475.553 571.037 468.98C567.637 462.407 565.937 454.7 565.937 445.86C565.937 437.02 567.751 429.37 571.377 422.91C575.117 416.45 580.161 411.463 586.507 407.95C592.967 404.437 600.221 402.68 608.267 402.68C616.314 402.68 623.511 404.437 629.857 407.95C636.204 411.35 641.191 416.28 644.817 422.74C648.557 429.2 650.427 436.907 650.427 445.86C650.427 454.813 648.671 462.577 645.157 469.15C641.757 475.61 636.884 480.653 630.537 484.28C624.304 487.793 616.881 489.55 608.267 489.55ZM608.267 486.15C612.234 486.15 615.407 485.017 617.787 482.75C620.167 480.483 621.867 476.46 622.887 470.68C624.021 464.9 624.587 456.74 624.587 446.2C624.587 435.547 624.021 427.33 622.887 421.55C621.867 415.77 620.167 411.747 617.787 409.48C615.407 407.213 612.234 406.08 608.267 406.08C604.301 406.08 601.071 407.213 598.577 409.48C596.197 411.747 594.441 415.77 593.307 421.55C592.287 427.33 591.777 435.547 591.777 446.2C591.777 456.74 592.287 464.9 593.307 470.68C594.441 476.46 596.197 480.483 598.577 482.75C601.071 485.017 604.301 486.15 608.267 486.15ZM657.894 487V485.3L660.444 484.62C662.711 483.94 664.241 482.92 665.034 481.56C665.941 480.2 666.394 478.443 666.394 476.29V423.08C666.394 420.587 665.941 418.773 665.034 417.64C664.241 416.393 662.711 415.543 660.444 415.09L657.894 414.41V412.71L687.134 402.85L688.834 404.55L690.364 419.17V420.53C691.951 417.357 693.991 414.467 696.484 411.86C699.091 409.14 701.924 406.93 704.984 405.23C708.157 403.53 711.274 402.68 714.334 402.68C718.641 402.68 721.927 403.87 724.194 406.25C726.461 408.63 727.594 411.633 727.594 415.26C727.594 419.113 726.461 422.117 724.194 424.27C722.041 426.31 719.434 427.33 716.374 427.33C711.614 427.33 707.421 424.95 703.794 420.19L703.454 419.85C702.321 418.263 701.017 417.413 699.544 417.3C698.071 417.073 696.711 417.753 695.464 419.34C694.331 420.36 693.367 421.607 692.574 423.08C691.894 424.44 691.214 426.027 690.534 427.84V475.27C690.534 479.803 692.517 482.637 696.484 483.77L701.924 485.3V487H657.894ZM772.947 402.68C780.314 402.68 786.604 404.21 791.817 407.27C797.03 410.217 800.997 414.297 803.717 419.51C806.55 424.61 807.967 430.447 807.967 437.02C807.967 438.267 807.91 439.57 807.797 440.93C807.684 442.177 807.457 443.31 807.117 444.33H756.457C756.57 456.57 758.724 465.41 762.917 470.85C767.224 476.177 773.57 478.84 781.957 478.84C787.624 478.84 792.214 477.933 795.727 476.12C799.24 474.307 802.527 471.643 805.587 468.13L807.287 469.66C803.774 475.893 799.07 480.767 793.177 484.28C787.397 487.793 780.427 489.55 772.267 489.55C764.22 489.55 757.08 487.85 750.847 484.45C744.614 480.937 739.74 475.95 736.227 469.49C732.714 463.03 730.957 455.323 730.957 446.37C730.957 437.077 732.997 429.2 737.077 422.74C741.157 416.167 746.37 411.18 752.717 407.78C759.177 404.38 765.92 402.68 772.947 402.68ZM772.437 406.08C769.15 406.08 766.317 407.1 763.937 409.14C761.67 411.067 759.857 414.58 758.497 419.68C757.25 424.667 756.57 431.75 756.457 440.93H785.527C786.66 428.577 786.207 419.68 784.167 414.24C782.127 408.8 778.217 406.08 772.437 406.08Z" fill="#F4B4C6"/>
</svg>
